<?xml version="1.0" standalone="no"?>
<!DOCTYPE svg PUBLIC "-//W3C//DTD SVG 20010904//EN"
 "http://www.w3.org/TR/2001/REC-SVG-20010904/DTD/svg10.dtd">
<svg version="1.0" xmlns="http://www.w3.org/2000/svg"
 width="308.000000pt" height="308.000000pt" viewBox="0 0 308.000000 308.000000"
 preserveAspectRatio="xMidYMid meet">
<metadata>
Created by potrace 1.11, written by Peter Selinger 2001-2013
</metadata>
<g transform="translate(0.000000,308.000000) scale(0.100000,-0.100000)"
fill="#000000" stroke="none">
<path d="M1553 2859 c-22 -8 -32 -28 -38 -82 -9 -74 -16 -125 -25 -182 -5 -33
-11 -78 -15 -100 -3 -22 -15 -94 -26 -160 -11 -66 -22 -133 -25 -150 -3 -16
-11 -64 -19 -105 -8 -41 -17 -86 -19 -100 -2 -14 -16 -86 -31 -160 -15 -74
-29 -144 -31 -155 -2 -11 -13 -62 -24 -114 -11 -52 -20 -98 -20 -102 0 -4 -55
21 -122 56 -533 277 -898 322 -1066 131 -77 -88 -106 -230 -63 -314 60 -118
202 -162 511 -156 91 1 183 5 205 8 22 3 94 13 160 21 140 19 171 23 277 43
26 5 49 8 51 5 2 -2 -2 -26 -9 -53 -7 -27 -15 -62 -18 -77 -8 -46 -15 -79 -36
-166 -10 -45 -21 -93 -24 -107 -2 -14 -23 -104 -46 -200 -39 -165 -88 -380
-93 -403 -2 -11 60 -33 69 -24 5 4 28 85 39 137 2 8 22 94 45 190 23 96 68
294 100 439 32 145 62 267 67 271 4 4 46 20 93 35 328 107 828 322 999 430 23
14 43 25 46 25 11 0 232 154 285 198 140 118 256 263 301 379 17 43 23 80 23
143 1 47 -2 93 -6 102 -7 17 -10 17 -41 2 -34 -16 -34 -16 -31 -81 11 -258
-303 -557 -869 -828 -181 -87 -277 -126 -277 -114 0 6 -18 110 -39 232 -22
122 -42 238 -45 257 -5 34 -52 300 -61 350 -3 14 -10 52 -15 85 -5 33 -12 71
-14 85 -3 14 -14 79 -26 145 -11 66 -23 127 -26 136 -6 23 -45 38 -71 28z m34
-261 c1 -20 14 -102 18 -108 2 -3 6 -30 10 -60 4 -30 8 -57 10 -60 2 -3 6 -27
9 -53 4 -26 11 -71 17 -100 5 -29 12 -70 15 -92 3 -22 9 -56 14 -75 5 -19 11
-53 15 -75 7 -47 7 -48 39 -235 14 -80 29 -164 34 -187 7 -30 6 -45 -2 -52
-12 -10 -257 -102 -323 -122 -36 -10 -46 -10 -68 5 -14 9 -24 20 -21 24 2 4 7
23 10 42 3 19 17 89 31 155 14 66 37 181 51 255 44 236 53 284 58 310 7 34 55
325 61 365 1 11 3 32 4 48 1 26 17 40 18 15z m-1030 -945 c175 -36 490 -169
688 -290 38 -23 15 -30 -215 -68 -14 -2 -45 -7 -70 -10 -25 -3 -52 -7 -60 -10
-8 -2 -44 -7 -80 -10 -36 -4 -78 -9 -95 -12 -74 -12 -359 -10 -433 4 -93 18
-168 56 -189 97 -33 64 12 210 81 259 79 56 223 72 373 40z"/>
<path d="M1835 1403 c-11 -3 -24 -8 -28 -13 -5 -4 21 -119 58 -256 139 -521
155 -581 155 -589 0 -4 -37 44 -83 107 -45 62 -166 226 -267 363 -101 138
-185 252 -186 253 -5 7 -64 -33 -64 -43 0 -5 49 -75 108 -155 59 -80 141 -192
182 -248 41 -56 139 -189 218 -295 78 -105 150 -203 160 -216 14 -19 23 -23
44 -18 15 4 28 15 30 25 2 9 -9 60 -23 112 -15 52 -44 158 -64 235 -21 77 -61
228 -90 335 -29 107 -65 243 -81 303 -16 59 -33 106 -39 106 -5 -1 -19 -3 -30
-6z"/>
</g>
</svg>
